<svg aria-hidden="true" style="position: absolute; width: 0; height: 0; overflow: hidden;" version="1.1" xmlns="http://www.w3.org/2000/svg" xmlns:xlink="http://www.w3.org/1999/xlink">
<defs>
<symbol id="icon_close" viewBox="0 0 32 32">
<title>icon_close</title>
<path d="M17.253 16l7.37-7.37c0.13-0.154 0.209-0.354 0.209-0.573 0-0.491-0.398-0.89-0.89-0.89-0.219 0-0.42 0.079-0.575 0.211l0.001-0.001-7.368 7.37-7.37-7.378c-0.159-0.147-0.372-0.237-0.606-0.237-0.493 0-0.893 0.4-0.893 0.893 0 0.234 0.090 0.447 0.237 0.606l-0.001-0.001 7.378 7.37-7.376 7.368c-0.194 0.164-0.316 0.408-0.316 0.68 0 0.491 0.398 0.89 0.89 0.89 0.272 0 0.515-0.122 0.678-0.314l0.001-0.001 7.376-7.37 7.37 7.37c0.155 0.133 0.357 0.214 0.579 0.214 0.491 0 0.89-0.398 0.89-0.89 0-0.222-0.081-0.424-0.215-0.58l0.001 0.001-7.37-7.368z"></path>
</symbol>
<symbol id="icon_github" viewBox="0 0 32 32">
<title>icon_github</title>
<path fill="#f8d24e" style="fill: var(--color1, #f8d24e)" d="M32 16c0 8.837-7.163 16-16 16s-16-7.163-16-16c0-8.837 7.163-16 16-16s16 7.163 16 16z"></path>
<path d="M16 6.588c-5.17 0-9.412 4.242-9.412 9.412 0 4.411 3.096 8.419 7.206 9.412v-3.113c-0.408 0.088-0.781 0.091-1.196-0.031-0.556-0.164-1.008-0.535-1.344-1.099-0.214-0.36-0.593-0.753-0.988-0.724l-0.097-1.098c0.856-0.073 1.594 0.521 2.033 1.258 0.196 0.328 0.421 0.52 0.709 0.605 0.278 0.083 0.577 0.043 0.925-0.080 0.088-0.697 0.408-0.958 0.649-1.327-2.452-0.365-3.429-1.666-3.816-2.692-0.514-1.364-0.238-3.066 0.67-4.143 0.018-0.021 0.050-0.075 0.038-0.113-0.417-1.259 0.090-2.3 0.109-2.41 0.481 0.141 0.559-0.143 2.089 0.786l0.264 0.159c0.111 0.066 0.075 0.028 0.186 0.019 0.59-0.166 1.269-0.266 1.97-0.276l0.006-0c0.668 0.008 1.336 0.104 2.002 0.284l0.086 0.009c-0.008-0.002 0.024-0.006 0.075-0.037 1.911-1.158 1.842-0.779 2.355-0.946 0.019 0.111 0.519 1.169 0.106 2.411-0.056 0.171 1.656 1.739 0.708 4.256-0.388 1.026-1.365 2.328-3.816 2.693 0.314 0.48 0.692 0.734 0.69 1.722v3.886c4.109-0.993 7.206-5 7.206-9.412 0-5.17-4.242-9.412-9.412-9.412z"></path>
</symbol>
<symbol id="icon_telegram" viewBox="0 0 32 32">
<title>icon_telegram</title>
<path fill="#f8d24e" style="fill: var(--color1, #f8d24e)" d="M32 16c0 8.837-7.163 16-16 16s-16-7.163-16-16c0-8.837 7.163-16 16-16s16 7.163 16 16z"></path>
<path d="M12.869 18.376l-0.318 4.169c0.455 0 0.651-0.183 0.888-0.401l2.131-1.901 4.414 3.018c0.809 0.421 1.38 0.199 1.598-0.696l2.899-12.673c0.257-1.117-0.433-1.554-1.222-1.28l-17.032 6.086c-1.162 0.422-1.144 1.026-0.198 1.301l4.355 1.264 10.115-5.907c0.475-0.295 0.908-0.132 0.552 0.163l-8.182 6.856z"></path>
</symbol>
<symbol id="icon_facebook" viewBox="0 0 32 32">
<title>icon_facebook</title>
<path fill="#f8d24e" style="fill: var(--color1, #f8d24e)" d="M16 32c8.837 0 16-7.163 16-16s-7.163-16-16-16-16 7.163-16 16 7.163 16 16 16z"></path>
<path d="M20.446 15.981h-2.611v9.619h-3.955v-9.619h-1.88v-3.379h1.88v-2.187c0-1.564 0.739-4.014 3.991-4.014l2.929 0.012v3.281h-2.125c-0.348 0-0.839 0.176-0.839 0.922v1.989h2.955l-0.345 3.377z"></path>
</symbol>
<symbol id="icon_burger" viewBox="0 0 32 32">
<title>icon_burger</title>
<path fill="none" stroke="#fff" style="stroke: var(--color3, #fff)" stroke-linejoin="miter" stroke-linecap="round" stroke-miterlimit="4" stroke-width="2" d="M6 10h20M6 16h20M6 22h20"></path>
</symbol>
<symbol id="icon_arrow_hover" viewBox="0 0 102 32">
<title>icon_arrow_hover</title>
<path d="M101.414 17.414c0.362-0.362 0.586-0.862 0.586-1.414s-0.224-1.052-0.586-1.414l-12.728-12.728c-0.364-0.377-0.874-0.611-1.439-0.611-1.105 0-2 0.895-2 2 0 0.565 0.234 1.074 0.61 1.438l0.001 0.001 11.314 11.314-11.314 11.314c-0.347 0.359-0.561 0.849-0.561 1.389 0 1.105 0.895 2 2 2 0.54 0 1.030-0.214 1.39-0.562l-0.001 0.001 12.728-12.728zM0 18h100v-4h-100v4z"></path>
</symbol>
<symbol id="icon_arrow_focus" viewBox="0 0 69 32">
<title>icon_arrow_focus</title>
<path d="M68.081 17.414c0.781-0.781 0.781-2.047 0-2.829l-12.728-12.728c-0.781-0.781-2.047-0.781-2.828 0s-0.781 2.047 0 2.828l11.314 11.314-11.314 11.314c-0.781 0.781-0.781 2.047 0 2.828s2.047 0.781 2.828 0l12.728-12.728zM0 18h66.667v-4h-66.667v4z"></path>
</symbol>
<symbol id="icon_arrow_def" viewBox="0 0 82 32">
<title>icon_arrow_def</title>
<path d="M81.414 17.414c0.362-0.362 0.586-0.862 0.586-1.414s-0.224-1.052-0.586-1.414l-12.728-12.728c-0.364-0.377-0.874-0.611-1.439-0.611-1.105 0-2 0.895-2 2 0 0.565 0.234 1.074 0.61 1.438l0.001 0.001 11.314 11.314-11.314 11.314c-0.347 0.359-0.561 0.849-0.561 1.389 0 1.105 0.895 2 2 2 0.54 0 1.030-0.214 1.39-0.562l-0.001 0.001 12.728-12.728zM0 18h80v-4h-80v4z"></path>
</symbol>
<symbol id="icon_arrow_in_button" viewBox="0 0 32 32">
<path stroke-linejoin="round" stroke-linecap="round" stroke-miterlimit="4" stroke-width="5.3333" d="M10.667 5.333l13.2 10.667-13.2 10.667"></path>
</symbol>
<symbol id="icon_buy-now" viewBox="0 0 32 32">
<title>icon_buy-now</title>
<path stroke-linejoin="round" stroke-linecap="round" stroke-miterlimit="4" stroke-width="5.3333" d="M10.667 5.333l13.2 10.667-13.2 10.667"></path>
</symbol>
</defs>
</svg>
